<svg width="3297" height="1498" viewBox="0 0 3297 1498" fill="none" xmlns="http://www.w3.org/2000/svg">
<path d="M1120.2 1393.3H1166.4C1186.4 1393.3 1199.4 1405.3 1199.4 1425.6C1199.4 1445.9 1186.4 1458 1166.4 1458H1140V1496H1120.2V1393.3ZM1164.1 1440.4C1174.1 1440.4 1179.5 1434.7 1179.5 1425.6C1179.5 1416.5 1174.1 1410.9 1164.1 1410.9H1139.9V1440.4H1164.1Z" fill="white"/>
<path d="M1226.8 1393.3H1274.5C1291.7 1393.1 1306.4 1405.4 1306 1421.2C1306 1434.3 1300.3 1442.8 1288.5 1447.1C1299.2 1447.1 1304.5 1452 1304.5 1461.6V1495.9H1284.7V1466.5C1284.7 1459.1 1282.6 1457 1275.2 1457H1246.6V1495.9H1226.8V1393.2V1393.3ZM1268.6 1439.9C1280.1 1439.9 1286.1 1434.7 1286.1 1425.1C1286.1 1415.5 1280.3 1411 1268.6 1411H1246.5V1439.9H1268.6Z" fill="white"/>
<path d="M1382.1 1391.9C1411.3 1391.5 1432.4 1412.3 1432 1444.7C1432.4 1477.1 1411.3 1497.8 1382.1 1497.5C1352.9 1497.9 1332 1477.1 1332.3 1444.7C1332 1412.3 1352.9 1391.6 1382.1 1391.9ZM1382.9 1479.9C1401.2 1479.9 1412.2 1466.6 1412.2 1444.7C1412.2 1422.8 1401.2 1409.5 1382.9 1409.5H1381.4C1363.1 1409.5 1352.1 1422.7 1352.1 1444.7C1352.1 1466.7 1363.1 1479.9 1381.4 1479.9H1382.9Z" fill="white"/>
<path d="M1461.3 1393.3H1507.5C1527.5 1393.3 1540.5 1405.3 1540.5 1425.6C1540.5 1445.9 1527.5 1458 1507.5 1458H1481.1V1496H1461.3V1393.3ZM1505.3 1440.4C1515.3 1440.4 1520.7 1434.7 1520.7 1425.6C1520.7 1416.5 1515.3 1410.9 1505.3 1410.9H1481.1V1440.4H1505.3Z" fill="white"/>
<path d="M1568 1393.3H1587.8V1496H1568V1393.3Z" fill="white"/>
<path d="M1622.8 1393.3H1700.5V1410.9H1642.6V1434.5H1691.7V1452.1H1642.6V1478.3H1702V1495.9H1622.8V1393.2V1393.3Z" fill="white"/>
<path d="M1730.8 1393.3H1766C1797 1393.2 1818.3 1411.6 1818.1 1444.6C1818.3 1477.8 1797.7 1496.2 1766.8 1495.9H1730.9V1393.2L1730.8 1393.3ZM1764.5 1478.4C1775.2 1478.4 1783.5 1475.8 1789.3 1470.7C1795.2 1465.5 1798.2 1456.9 1798.2 1444.7C1798.2 1432.5 1795.3 1423.9 1789.3 1418.8C1783.4 1413.6 1775.1 1411 1764.5 1411H1750.5V1478.5H1764.5V1478.4Z" fill="white"/>
<path d="M1905.9 1471.8H1862.8L1853.6 1496H1832.8L1873.4 1393.3H1896.6L1936.2 1496H1915.2L1906 1471.8H1905.9ZM1899.2 1454.2L1884.3 1415.2L1869.5 1454.2H1899.2Z" fill="white"/>
<path d="M1960 1393.3H1995.2C2026.2 1393.2 2047.5 1411.6 2047.3 1444.6C2047.5 1477.8 2026.9 1496.2 1996 1495.9H1960.1V1393.2L1960 1393.3ZM1993.8 1478.4C2004.5 1478.4 2012.8 1475.8 2018.6 1470.7C2024.5 1465.5 2027.5 1456.9 2027.5 1444.7C2027.5 1432.5 2024.6 1423.9 2018.6 1418.8C2012.7 1413.6 2004.4 1411 1993.8 1411H1979.8V1478.5H1993.8V1478.4Z" fill="white"/>
<path d="M2076.8 1393.3H2154.5V1410.9H2096.6V1434.5H2145.7V1452.1H2096.6V1478.3H2156V1495.9H2076.8V1393.2V1393.3Z" fill="white"/>
<path d="M2196.8 1461.6C2197.5 1472.1 2205.3 1479.9 2220.3 1479.9H2221.7C2232.4 1479.9 2238.5 1474.2 2238.5 1467.4C2238.5 1460.6 2235.7 1457.9 2226.9 1456.1L2208.6 1452.3C2190.6 1448.5 2182.2 1438.3 2182.2 1422.7C2181.9 1407.1 2196.8 1391.6 2221.1 1391.9C2245.4 1391.7 2260.2 1406.2 2260 1425.6H2240.2C2239.6 1415.2 2232 1409.5 2221.2 1409.5H2219.7C2209 1409.5 2202.2 1415.3 2202.2 1422C2202.2 1428.7 2205.8 1431.8 2214.7 1433.6L2230.1 1436.7C2248.4 1440.4 2258.5 1449.9 2258.5 1466C2258.7 1483.6 2243.7 1497.7 2219 1497.5C2191.4 1497.5 2178 1483.3 2177.2 1461.6H2197H2196.8Z" fill="white"/>
<path d="M824.3 367.8C822.1 365.8 819.8 364.1 817.7 362.2C726 280.2 615.1 238.9 484.6 238.9C354.1 238.9 234 281.9 140.5 367.8C46.9998 453.7 0.299805 564.1 0.299805 698.8C0.299805 833.5 47.0998 945.6 140.5 1031.6C141.9 1032.9 143.4 1033.9 144.7 1035.1C237.4 1118.5 350.7 1160.5 484.6 1160.5C618.5 1160.5 731.4 1117.5 824.3 1031.6C917.2 945.6 963.7 834.7 963.7 698.8C963.7 562.9 917.2 453.7 824.3 367.8ZM481.9 890.4C376.6 890.4 291.2 805 291.2 699.7C291.2 594.4 376.6 509 481.9 509C587.2 509 672.6 594.4 672.6 699.7C672.6 805 587.2 890.4 481.9 890.4Z" fill="white"/>
<path d="M3201.9 482.4C3189.5 470 3183.5 455.4 3183.5 438.3C3183.5 421.2 3189.5 406.6 3201.9 394.2C3214.3 381.8 3228.9 375.8 3246.3 375.8C3263.7 375.8 3277.7 381.8 3290.1 394.2C3302.5 406.6 3308.5 421.2 3308.5 438.3C3308.5 455.4 3302.5 470 3290.1 482.4C3277.7 494.5 3263.1 500.5 3246.3 500.5C3229.5 500.5 3214.2 494.5 3201.9 482.4ZM3280.6 403.7C3271.4 394.2 3260 389.4 3246.3 389.4C3232.6 389.4 3221.2 394.2 3211.7 403.7C3202.2 413.2 3197.4 424.6 3197.4 438.3C3197.4 452 3202.2 463.1 3211.7 472.6C3221.2 482.1 3232.6 486.9 3246.3 486.9C3260 486.9 3271.4 482.1 3280.6 472.6C3290.1 463.1 3294.9 451.7 3294.9 438.3C3294.9 424.9 3290.1 413.2 3280.6 403.7ZM3223.4 470.7V406.3H3251C3264.6 406.3 3272.9 414.2 3273.2 427.9C3273.2 434.6 3270.7 440 3265.3 443.5C3269.4 445.1 3271.6 448.6 3272 454L3272.3 463.2C3272.9 468 3273.6 470.5 3274.2 470.8H3259.6C3259.3 470.2 3259 467.9 3258.6 463.8L3257.6 453.6C3257.3 450.4 3255.7 448.8 3252.5 448.8H3237.3V470.7H3223.3H3223.4ZM3237.4 436.4H3249.8C3255.2 436.4 3259 432.9 3259 427.8C3259 422.7 3255.8 419.5 3249.8 419.5H3237.4V436.3V436.4Z" fill="white"/>
<path d="M1709.3 274.7L1652.5 432.7C1652.5 432.7 1616.5 532 1531.9 519.1C1447.4 506.2 1326.4 489.5 1326.4 489.5C1326.4 489.5 1292.7 486.3 1282.5 515.4C1272.3 544.5 1297.7 564.8 1310.7 567.1C1323.6 569.4 1566.6 604.5 1566.6 604.5C1566.6 604.5 1633.1 615 1686.2 649.6C1739.3 684.3 1809.4 763.5 1809.4 889.5C1809.4 1015.5 1716.1 1093 1716.1 1093C1716.1 1093 1660.1 1153.3 1549 1160.7C1437.9 1168.1 1348.5 1163.4 1311.4 1160.7C1225.5 1154.4 971.6 1119.6 971.6 1119.6L1050 929.2C1050 929.2 1075.2 862.9 1134.5 869.5C1193.8 876 1439 910.1 1439 910.1C1439 910.1 1483.2 915.5 1489.6 881.1C1494.6 854.6 1477.1 835.9 1459.8 833.1C1442.5 830.3 1240 802.8 1240 802.8C1240 802.8 1103.7 794.4 1035.6 694.1C967.5 593.8 987.1 472.4 987.1 472.4C987.1 472.4 1006.7 362.7 1095.8 299.2C1184.9 235.7 1271.3 231.1 1385.6 236.7C1499.9 242.3 1709.3 274.8 1709.3 274.8V274.7Z" fill="white"/>
<path d="M1855.4 0.299805H2196.4V1139.7H1930.1C1888.9 1139.7 1855.4 1106.2 1855.4 1065V0.299805Z" fill="white"/>
<path d="M3040.8 363L2907.2 496.6C2958.2 445.6 2986.5 341.2 2917.2 271.9C2887.8 242.5 2841.9 228.5 2801.7 221.8C2757 214.4 2719.4 216.1 2719.4 216.1C2461.4 216.1 2252.3 425.2 2252.3 683.2C2252.3 941.2 2304.7 929.2 2389.4 1013.8L2523 880.2C2472 931.2 2443.7 1035.6 2513 1104.9C2542.4 1134.3 2588.3 1148.3 2628.5 1155C2673.2 1162.4 2710.8 1160.7 2710.8 1160.7C2968.8 1160.7 3177.9 951.6 3177.9 693.6C3177.9 435.6 3125.5 447.6 3040.8 363ZM2715.1 877.1C2610.9 877.1 2526.4 792.6 2526.4 688.4C2526.4 584.2 2610.9 499.7 2715.1 499.7C2819.3 499.7 2903.8 584.2 2903.8 688.4C2903.8 792.6 2819.3 877.1 2715.1 877.1Z" fill="white"/>
</svg>
