<?xml version="1.0" encoding="UTF-8"?><svg id="Layer_1" xmlns="http://www.w3.org/2000/svg" viewBox="0 0 16 16"><defs><style>.cls-1{fill:#fff;stroke-width:0px;}</style></defs><path class="cls-1" d="M15.14,4.04c.12,0,.22-.04.3-.12.08-.08.13-.18.13-.3s-.04-.21-.13-.3c-.08-.08-.18-.12-.3-.12s-.22.04-.3.12c-.08.08-.12.18-.12.3s.04.22.12.3c.08.08.18.12.3.12ZM14.91,3.39c.07-.07.14-.1.23-.1s.17.03.23.1c.07.06.1.14.1.24s-.03.17-.1.23c-.07.06-.14.09-.23.09s-.17-.03-.23-.09c-.07-.06-.1-.14-.1-.23s.03-.17.1-.24Z"/><path class="cls-1" d="M15.07,3.68h.07l.1.12h.09l-.1-.13c.06-.02.09-.06.09-.12,0-.08-.06-.13-.15-.13h-.16v.38h.07v-.12h0ZM15.07,3.49h.09s.08.03.08.06c0,.04-.03.07-.08.07h-.09v-.13h0Z"/><path class="cls-1" d="M7.92,6.7c0-2.07-1.68-3.75-3.75-3.75S.43,4.63.43,6.7c0,1.93,1.46,3.52,3.34,3.73H.6c.48,1.52,1.9,2.62,3.57,2.62s3.1-1.1,3.57-2.62h-3.17c1.88-.2,3.34-1.79,3.34-3.73h0Z"/><circle class="cls-1" cx="11.8" cy="6.7" r="3.75"/></svg>